<svg xmlns="http://www.w3.org/2000/svg" viewBox="0 0 1200 300" width="1200" height="300" role="img" aria-label="MD Sayed Hasan, AI and Software Engineering student working on computer vision, deep learning and full-stack development. A 3 by 3 kernel slides across a matrix of activation values and builds a feature map.">
  <defs>
    <linearGradient id="bg" x1="0" y1="0" x2="1" y2="1">
      <stop offset="0%" stop-color="#0B0F19"/>
      <stop offset="50%" stop-color="#111827"/>
      <stop offset="100%" stop-color="#0B0F19"/>
    </linearGradient>
    <linearGradient id="rule" x1="0" y1="0" x2="1" y2="0">
      <stop offset="0%" stop-color="#E59A3A"/>
      <stop offset="100%" stop-color="#F7C77E"/>
    </linearGradient>
    <linearGradient id="nameFill" x1="0" y1="0" x2="1" y2="0">
      <stop offset="0%" stop-color="#F3F5F8"/>
      <stop offset="100%" stop-color="#E59A3A"/>
    </linearGradient>
    <radialGradient id="glowspot" cx="50%" cy="50%" r="50%">
      <stop offset="0%" stop-color="#E59A3A" stop-opacity="0.16"/>
      <stop offset="100%" stop-color="#E59A3A" stop-opacity="0"/>
    </radialGradient>
    <filter id="softGlow" x="-60%" y="-60%" width="220%" height="220%">
      <feGaussianBlur stdDeviation="3.2" result="blur"/>
      <feMerge>
        <feMergeNode in="blur"/>
        <feMergeNode in="SourceGraphic"/>
      </feMerge>
    </filter>
    <pattern id="grid" width="34" height="34" patternUnits="userSpaceOnUse">
      <path d="M 34 0 L 0 0 0 34" fill="none" stroke="#E59A3A" stroke-width="0.5" opacity="0.05"/>
    </pattern>
    <style>
      .mono { font-family: ui-monospace, "SFMono-Regular", "SF Mono", Menlo, Consolas, "DejaVu Sans Mono", monospace; }
      .num  { font-family: ui-monospace, "SFMono-Regular", "SF Mono", Menlo, Consolas, "DejaVu Sans Mono", monospace;
               font-size: 11px; text-anchor: middle; }
      .eyebrow { font-size: 12px; letter-spacing: 3.6px; fill: #E59A3A; opacity: .85; }
      .name { font-family: Georgia, "Iowan Old Style", "Times New Roman", serif;
               font-size: 54px; fill: url(#nameFill); letter-spacing: -0.4px; }
      .sub { font-size: 13.5px; letter-spacing: .3px; fill: #9AA4B8; }
      .cap { font-size: 10.5px; letter-spacing: 2.2px; fill: #6E7893; opacity: .9; }

      #kernel { animation: kernel 9.6s steps(1, end) infinite; }
      @keyframes kernel {
        0.0000% { transform: translate(0px, 0px); }
        8.3333% { transform: translate(40px, 0px); }
        16.6667% { transform: translate(80px, 0px); }
        25.0000% { transform: translate(120px, 0px); }
        33.3333% { transform: translate(0px, 34px); }
        41.6667% { transform: translate(40px, 34px); }
        50.0000% { transform: translate(80px, 34px); }
        58.3333% { transform: translate(120px, 34px); }
        66.6667% { transform: translate(0px, 68px); }
        75.0000% { transform: translate(40px, 68px); }
        83.3333% { transform: translate(80px, 68px); }
        91.6667% { transform: translate(120px, 68px); }
      }

      .o { fill: #E59A3A; opacity: .06;
            animation-duration: 9.6s; animation-timing-function: steps(1, end);
            animation-iteration-count: infinite; }
      .o0 { animation-name: fill0; } .o1 { animation-name: fill1; } .o2 { animation-name: fill2; }
      .o3 { animation-name: fill3; } .o4 { animation-name: fill4; } .o5 { animation-name: fill5; }
      .o6 { animation-name: fill6; } .o7 { animation-name: fill7; } .o8 { animation-name: fill8; }
      .o9 { animation-name: fill9; } .o10 { animation-name: fill10; } .o11 { animation-name: fill11; }
      @keyframes fill0 { 0%,0.0000% { opacity:.06 } 8.3333%,100% { opacity:.9 } }
      @keyframes fill1 { 0%,8.3333% { opacity:.06 } 16.6667%,100% { opacity:.9 } }
      @keyframes fill2 { 0%,16.6667% { opacity:.06 } 25.0000%,100% { opacity:.9 } }
      @keyframes fill3 { 0%,25.0000% { opacity:.06 } 33.3333%,100% { opacity:.9 } }
      @keyframes fill4 { 0%,33.3333% { opacity:.06 } 41.6667%,100% { opacity:.9 } }
      @keyframes fill5 { 0%,41.6667% { opacity:.06 } 50.0000%,100% { opacity:.9 } }
      @keyframes fill6 { 0%,50.0000% { opacity:.06 } 58.3333%,100% { opacity:.9 } }
      @keyframes fill7 { 0%,58.3333% { opacity:.06 } 66.6667%,100% { opacity:.9 } }
      @keyframes fill8 { 0%,66.6667% { opacity:.06 } 75.0000%,100% { opacity:.9 } }
      @keyframes fill9 { 0%,75.0000% { opacity:.06 } 83.3333%,100% { opacity:.9 } }
      @keyframes fill10 { 0%,83.3333% { opacity:.06 } 91.6667%,100% { opacity:.9 } }
      @keyframes fill11 { 0%,91.6667% { opacity:.06 } 100.0000%,100% { opacity:.9 } }

      #scan { animation: scan 6s linear infinite; }
      @keyframes scan {
        0% { transform: translateX(-60px); opacity: 0; }
        8% { opacity: .5; }
        50% { opacity: .5; }
        92% { opacity: 0; }
        100% { transform: translateX(1200px); opacity: 0; }
      }

      .star { fill: #E59A3A; animation-name: twinkle; animation-timing-function: ease-in-out; animation-iteration-count: infinite; }
      .star-w { fill: #E8EBF0; }
      @keyframes twinkle {
        0%, 100% { opacity: .08; }
        50% { opacity: .9; }
      }

      @media (prefers-reduced-motion: reduce) {
        #kernel, #scan { animation: none; }
        .o { animation: none; opacity: .5; }
        .star { animation: none; opacity: .3; }
      }
    </style>
  </defs>

  <rect width="1200" height="300" rx="14" fill="url(#bg)"/>
  <rect width="1200" height="300" rx="14" fill="url(#grid)"/>
  <circle cx="150" cy="60" r="220" fill="url(#glowspot)"/>
  <circle cx="1050" cy="250" r="260" fill="url(#glowspot)"/>

  <g id="stars">
    <circle class="star" cx="395.6" cy="57.3" r="1.42" style="animation-duration:2.81s;animation-delay:2.68s;"/>
    <circle class="star star-w" cx="87.3" cy="155.0" r="0.74" style="animation-duration:3.86s;animation-delay:0.35s;"/>
    <circle class="star" cx="512.4" cy="242.6" r="0.84" style="animation-duration:3.25s;animation-delay:3.14s;"/>
    <circle class="star star-w" cx="689.4" cy="124.7" r="1.77" style="animation-duration:2.74s;animation-delay:4.29s;"/>
    <circle class="star" cx="187.3" cy="48.3" r="1.04" style="animation-duration:4.97s;animation-delay:0.9s;"/>
    <circle class="star star-w" cx="761.1" cy="118.0" r="1.3" style="animation-duration:2.78s;animation-delay:0.3s;"/>
    <circle class="star star-w" cx="809.3" cy="133.2" r="1.05" style="animation-duration:4.3s;animation-delay:2.27s;"/>
    <circle class="star" cx="941.5" cy="207.5" r="0.97" style="animation-duration:4.27s;animation-delay:2.63s;"/>
    <circle class="star" cx="866.2" cy="94.9" r="1.78" style="animation-duration:2.94s;animation-delay:2.09s;"/>
    <circle class="star" cx="196.3" cy="150.0" r="0.74" style="animation-duration:4.54s;animation-delay:3.82s;"/>
    <circle class="star" cx="1035.6" cy="102.0" r="1.46" style="animation-duration:4.32s;animation-delay:2.9s;"/>
    <circle class="star" cx="994.4" cy="274.8" r="1.22" style="animation-duration:4.53s;animation-delay:0.3s;"/>
    <circle class="star" cx="770.7" cy="288.1" r="1.6" style="animation-duration:3.43s;animation-delay:1.93s;"/>
    <circle class="star" cx="46.2" cy="142.5" r="0.88" style="animation-duration:2.94s;animation-delay:0.29s;"/>
    <circle class="star" cx="170.0" cy="83.8" r="1.13" style="animation-duration:5.13s;animation-delay:0.4s;"/>
    <circle class="star" cx="657.4" cy="258.0" r="1.6" style="animation-duration:5.11s;animation-delay:1.39s;"/>
    <circle class="star star-w" cx="436.2" cy="258.3" r="1.75" style="animation-duration:3.04s;animation-delay:0.88s;"/>
    <circle class="star" cx="290.7" cy="148.9" r="1.35" style="animation-duration:3.36s;animation-delay:0.02s;"/>
    <circle class="star" cx="448.3" cy="171.2" r="1.75" style="animation-duration:4.6s;animation-delay:2.58s;"/>
    <circle class="star" cx="804.4" cy="30.8" r="1.69" style="animation-duration:4.86s;animation-delay:4.37s;"/>
    <circle class="star star-w" cx="475.2" cy="125.3" r="0.81" style="animation-duration:4.44s;animation-delay:0.31s;"/>
    <circle class="star star-w" cx="262.2" cy="60.5" r="1.07" style="animation-duration:2.75s;animation-delay:0.0s;"/>
    <circle class="star star-w" cx="137.7" cy="115.6" r="0.73" style="animation-duration:5.14s;animation-delay:3.07s;"/>
    <circle class="star" cx="312.6" cy="111.2" r="1.1" style="animation-duration:2.96s;animation-delay:4.24s;"/>
    <circle class="star star-w" cx="560.5" cy="148.6" r="0.79" style="animation-duration:2.9s;animation-delay:1.71s;"/>
    <circle class="star star-w" cx="981.5" cy="60.2" r="0.73" style="animation-duration:5.36s;animation-delay:2.64s;"/>
  </g>

  <!-- corner circuit accents -->
  <path d="M 20 20 L 20 44 M 20 20 L 44 20" stroke="#E59A3A" stroke-width="1.4" opacity=".55" fill="none"/>
  <path d="M 1180 280 L 1180 256 M 1180 280 L 1156 280" stroke="#E59A3A" stroke-width="1.4" opacity=".55" fill="none"/>
  <circle cx="20" cy="20" r="2.2" fill="#E59A3A" opacity=".8"/>
  <circle cx="1180" cy="280" r="2.2" fill="#E59A3A" opacity=".8"/>

  <!-- scan line -->
  <rect id="scan" x="0" y="0" width="2" height="300" fill="#E59A3A" opacity=".5"/>

  <!-- identity -->
  <text class="mono eyebrow" x="64" y="104">AI &#38; SOFTWARE ENGINEERING STUDENT &#183; DHAKA</text>
  <text class="name" x="62" y="166" filter="url(#softGlow)">MD Sayed Hasan</text>
  <rect x="64" y="188" width="64" height="3" rx="1.5" fill="url(#rule)"/>
  <text class="mono sub" x="64" y="224">computer vision &#183; deep learning &#183; full-stack dev &#183; bangla nlp</text>
  <text class="mono cap" x="64" y="252">BUILDING AI-POWERED APPLICATIONS</text>

  <line x1="600" y1="66" x2="600" y2="258" stroke="#22293B" stroke-width="1"/>

  <!-- input activation matrix -->
    <rect x="670" y="80" width="36" height="30" rx="2.5" fill="#171E2E"/>
    <text class="num" x="688" y="98" fill="#E59A3A" opacity=".9">.84</text>
    <rect x="710" y="80" width="36" height="30" rx="2.5" fill="#171E2E"/>
    <text class="num" x="728" y="98" fill="#6E7893" opacity=".7">.12</text>
    <rect x="750" y="80" width="36" height="30" rx="2.5" fill="#171E2E"/>
    <text class="num" x="768" y="98" fill="#6E7893" opacity=".7">.07</text>
    <rect x="790" y="80" width="36" height="30" rx="2.5" fill="#171E2E"/>
    <text class="num" x="808" y="98" fill="#6E7893" opacity=".7">.63</text>
    <rect x="830" y="80" width="36" height="30" rx="2.5" fill="#171E2E"/>
    <text class="num" x="848" y="98" fill="#E59A3A" opacity=".9">.91</text>
    <rect x="870" y="80" width="36" height="30" rx="2.5" fill="#171E2E"/>
    <text class="num" x="888" y="98" fill="#6E7893" opacity=".7">.28</text>
    <rect x="670" y="114" width="36" height="30" rx="2.5" fill="#171E2E"/>
    <text class="num" x="688" y="132" fill="#6E7893" opacity=".7">.05</text>
    <rect x="710" y="114" width="36" height="30" rx="2.5" fill="#171E2E"/>
    <text class="num" x="728" y="132" fill="#6E7893" opacity=".7">.77</text>
    <rect x="750" y="114" width="36" height="30" rx="2.5" fill="#171E2E"/>
    <text class="num" x="768" y="132" fill="#6E7893" opacity=".7">.41</text>
    <rect x="790" y="114" width="36" height="30" rx="2.5" fill="#171E2E"/>
    <text class="num" x="808" y="132" fill="#6E7893" opacity=".7">.18</text>
    <rect x="830" y="114" width="36" height="30" rx="2.5" fill="#171E2E"/>
    <text class="num" x="848" y="132" fill="#6E7893" opacity=".7">.52</text>
    <rect x="870" y="114" width="36" height="30" rx="2.5" fill="#171E2E"/>
    <text class="num" x="888" y="132" fill="#E59A3A" opacity=".9">.96</text>
    <rect x="670" y="148" width="36" height="30" rx="2.5" fill="#171E2E"/>
    <text class="num" x="688" y="166" fill="#6E7893" opacity=".7">.33</text>
    <rect x="710" y="148" width="36" height="30" rx="2.5" fill="#171E2E"/>
    <text class="num" x="728" y="166" fill="#6E7893" opacity=".7">.68</text>
    <rect x="750" y="148" width="36" height="30" rx="2.5" fill="#171E2E"/>
    <text class="num" x="768" y="166" fill="#6E7893" opacity=".7">.02</text>
    <rect x="790" y="148" width="36" height="30" rx="2.5" fill="#171E2E"/>
    <text class="num" x="808" y="166" fill="#6E7893" opacity=".7">.87</text>
    <rect x="830" y="148" width="36" height="30" rx="2.5" fill="#171E2E"/>
    <text class="num" x="848" y="166" fill="#E59A3A" opacity=".9">.24</text>
    <rect x="870" y="148" width="36" height="30" rx="2.5" fill="#171E2E"/>
    <text class="num" x="888" y="166" fill="#6E7893" opacity=".7">.59</text>
    <rect x="670" y="182" width="36" height="30" rx="2.5" fill="#171E2E"/>
    <text class="num" x="688" y="200" fill="#6E7893" opacity=".7">.71</text>
    <rect x="710" y="182" width="36" height="30" rx="2.5" fill="#171E2E"/>
    <text class="num" x="728" y="200" fill="#6E7893" opacity=".7">.09</text>
    <rect x="750" y="182" width="36" height="30" rx="2.5" fill="#171E2E"/>
    <text class="num" x="768" y="200" fill="#E59A3A" opacity=".9">.95</text>
    <rect x="790" y="182" width="36" height="30" rx="2.5" fill="#171E2E"/>
    <text class="num" x="808" y="200" fill="#6E7893" opacity=".7">.36</text>
    <rect x="830" y="182" width="36" height="30" rx="2.5" fill="#171E2E"/>
    <text class="num" x="848" y="200" fill="#E59A3A" opacity=".9">.80</text>
    <rect x="870" y="182" width="36" height="30" rx="2.5" fill="#171E2E"/>
    <text class="num" x="888" y="200" fill="#6E7893" opacity=".7">.15</text>
    <rect x="670" y="216" width="36" height="30" rx="2.5" fill="#171E2E"/>
    <text class="num" x="688" y="234" fill="#6E7893" opacity=".7">.47</text>
    <rect x="710" y="216" width="36" height="30" rx="2.5" fill="#171E2E"/>
    <text class="num" x="728" y="234" fill="#6E7893" opacity=".7">.23</text>
    <rect x="750" y="216" width="36" height="30" rx="2.5" fill="#171E2E"/>
    <text class="num" x="768" y="234" fill="#E59A3A" opacity=".9">.61</text>
    <rect x="790" y="216" width="36" height="30" rx="2.5" fill="#171E2E"/>
    <text class="num" x="808" y="234" fill="#6E7893" opacity=".7">.04</text>
    <rect x="830" y="216" width="36" height="30" rx="2.5" fill="#171E2E"/>
    <text class="num" x="848" y="234" fill="#6E7893" opacity=".7">.38</text>
    <rect x="870" y="216" width="36" height="30" rx="2.5" fill="#171E2E"/>
    <text class="num" x="888" y="234" fill="#6E7893" opacity=".7">.72</text>

  <!-- sliding kernel -->
  <g id="kernel" filter="url(#softGlow)">
    <rect x="666" y="76" width="124" height="106" rx="5"
          fill="#E59A3A" fill-opacity=".10" stroke="#E59A3A" stroke-width="1.6"/>
    <rect x="666" y="76" width="10" height="2" fill="#E59A3A"/>
    <rect x="780" y="180" width="10" height="2" fill="#E59A3A"/>
  </g>

  <!-- arrow -->
  <line x1="920" y1="163" x2="944" y2="163"
        stroke="#E59A3A" stroke-width="1.4" opacity=".7"/>
  <polyline points="937,158 944,163 937,168"
        fill="none" stroke="#E59A3A" stroke-width="1.4" opacity=".7"/>

  <!-- feature map -->
    <rect class="o o0" x="966" y="123" width="26" height="24" rx="2.5"/>
    <rect class="o o1" x="996" y="123" width="26" height="24" rx="2.5"/>
    <rect class="o o2" x="1026" y="123" width="26" height="24" rx="2.5"/>
    <rect class="o o3" x="1056" y="123" width="26" height="24" rx="2.5"/>
    <rect class="o o4" x="966" y="151" width="26" height="24" rx="2.5"/>
    <rect class="o o5" x="996" y="151" width="26" height="24" rx="2.5"/>
    <rect class="o o6" x="1026" y="151" width="26" height="24" rx="2.5"/>
    <rect class="o o7" x="1056" y="151" width="26" height="24" rx="2.5"/>
    <rect class="o o8" x="966" y="179" width="26" height="24" rx="2.5"/>
    <rect class="o o9" x="996" y="179" width="26" height="24" rx="2.5"/>
    <rect class="o o10" x="1026" y="179" width="26" height="24" rx="2.5"/>
    <rect class="o o11" x="1056" y="179" width="26" height="24" rx="2.5"/>

  <rect x="961" y="118" width="126" height="90" rx="4"
        fill="none" stroke="#E59A3A" stroke-width="1" opacity=".3"/>

  <text class="mono cap" x="670" y="272">CONV 3&#215;3 &#183; STRIDE 1 &#183; VALID &#8594; FEATURE MAP 4&#215;3</text>
</svg>
